<?xml version="1.0" encoding="UTF-8" standalone="no"?>
<svg
   version="1.1"
   viewBox="0 0 1000.7999 566.9"
   xml:space="preserve"
   id="svg20"
   sodipodi:docname="logo_print.svg"
   width="1000.8"
   height="566.90002"
   inkscape:version="1.2.2 (b0a8486541, 2022-12-01)"
   inkscape:export-filename="logo_print.png"
   inkscape:export-xdpi="56.444023"
   inkscape:export-ydpi="56.444023"
   xmlns:inkscape="http://www.inkscape.org/namespaces/inkscape"
   xmlns:sodipodi="http://sodipodi.sourceforge.net/DTD/sodipodi-0.dtd"
   xmlns="http://www.w3.org/2000/svg"
   xmlns:svg="http://www.w3.org/2000/svg"><defs
   id="defs24" /><sodipodi:namedview
   id="namedview22"
   pagecolor="#ffffff"
   bordercolor="#999999"
   borderopacity="1"
   inkscape:showpageshadow="0"
   inkscape:pageopacity="0"
   inkscape:pagecheckerboard="0"
   inkscape:deskcolor="#d1d1d1"
   showgrid="false"
   inkscape:zoom="0.80961898"
   inkscape:cx="839.28368"
   inkscape:cy="285.93697"
   inkscape:window-width="2560"
   inkscape:window-height="1398"
   inkscape:window-x="0"
   inkscape:window-y="0"
   inkscape:window-maximized="1"
   inkscape:current-layer="svg20" />
<style
   type="text/css"
   id="style2">
	.st0{fill:#F3A628;}
	.st1{fill:#575756;}
</style>
<path
   class="st0"
   d="m 97.8,197.2 c 0,-3.4 2.6,-6.4 6.4,-6.4 h 7.7 c 3.4,0 6.4,2.9 6.4,6.4 v 74.9 l 82.6,-78.6 c 1.1,-1.3 3.4,-2.6 5,-2.6 h 13 c 4.8,0 7.4,5.3 3.2,9.3 l -83.6,78.1 87.6,89.7 c 1.9,1.9 1.3,8.2 -4.5,8.2 h -13.5 c -1.9,0 -4.2,-1.1 -4.8,-1.9 l -85,-88.7 v 84.2 c 0,3.4 -2.9,6.4 -6.4,6.4 h -7.7 c -3.7,0 -6.4,-2.9 -6.4,-6.4 z"
   id="path4"
   style="fill:#65c2ee;fill-opacity:1"
   inkscape:export-filename="logo_header.png"
   inkscape:export-xdpi="15.294741"
   inkscape:export-ydpi="15.294741" />
<path
   class="st0"
   d="m 469.1,195.8 c 0,-2.6 2.1,-5 5,-5 h 10.3 c 2.6,0 5,2.4 5,5 v 162.5 h 76.2 c 2.9,0 5,2.4 5,5 v 7.7 c 0,2.6 -2.1,5 -5,5 H 474 c -2.9,0 -5,-2.4 -5,-5 V 195.8 Z"
   id="path6"
   style="fill:#65c2ee;fill-opacity:1" />
<path
   class="st0"
   d="m 581.9,369.2 80.5,-178.1 c 0.8,-1.6 2.1,-2.9 4.5,-2.9 h 2.6 c 2.4,0 3.7,1.3 4.5,2.9 l 79.9,178.1 c 1.6,3.4 -0.5,6.9 -4.5,6.9 h -10.6 c -2.4,0 -4,-1.6 -4.5,-2.9 l -19.6,-43.7 h -93.9 l -19.3,43.7 c -0.5,1.3 -2.1,2.9 -4.5,2.9 h -10.6 c -4,0 -6.1,-3.5 -4.5,-6.9 z m 125.7,-56.1 c -13,-28.8 -25.7,-58 -38.6,-86.8 h -2.1 l -38.6,86.8 z"
   id="path8"
   style="fill:#65c2ee;fill-opacity:1" />
<path
   class="st0"
   d="m 782.7,195.8 c 0,-2.6 2.1,-5 5,-5 h 58 c 32.3,0 54.3,20.9 54.3,48.7 0,20.4 -13.5,35.2 -25.9,42.3 14,5.8 31.8,18.8 31.8,43.1 0,29.6 -23.6,51.1 -57.7,51.1 h -60.3 c -2.9,0 -5,-2.4 -5,-5 V 195.8 Z m 67.5,162.5 c 19.3,0 33.3,-14.6 33.3,-33.6 0,-18.8 -17.2,-32.6 -37.8,-32.6 H 802 v 66.2 z m -4.5,-84.4 c 20.4,0 31.8,-14.6 31.8,-33.1 0,-19.1 -11.4,-31.8 -31.8,-31.8 h -43.1 v 64.8 h 43.1 z"
   id="path10"
   style="fill:#65c2ee;fill-opacity:1" />



<path
   class="st0"
   d="m 355,374.8 c -4,0 -7.7,-2.7 -8.7,-6.8 -1.2,-4.8 1.7,-9.7 6.6,-10.9 34.2,-8.5 58.1,-39.2 58.1,-74.4 0,-42.3 -34.4,-76.7 -76.7,-76.7 -42.3,0 -76.7,34.4 -76.7,76.7 0,35.3 23.9,65.9 58.1,74.4 4.8,1.2 7.8,6.1 6.6,10.9 -1.2,4.8 -6.1,7.8 -10.9,6.6 -42.2,-10.5 -71.7,-48.4 -71.7,-91.9 0,-52.2 42.5,-94.8 94.8,-94.8 52.3,0 94.8,42.5 94.8,94.8 0,43.6 -29.5,81.4 -71.7,91.9 -1.1,0.1 -1.8,0.2 -2.6,0.2 z"
   id="path18"
   style="fill:#65c2ee;fill-opacity:1" />
</svg>
