<?xml version="1.0" encoding="utf-8"?>
<svg version="1.1" xmlns="http://www.w3.org/2000/svg" xmlns:xlink="http://www.w3.org/1999/xlink"
	 viewBox="0 0 1700.8 566.9" xml:space="preserve">
<style type="text/css">
	.st0{fill:#F3A628;}
	.st1{fill:#575756;}
</style>
<path class="st0" d="M97.8,197.2c0-3.4,2.6-6.4,6.4-6.4h7.7c3.4,0,6.4,2.9,6.4,6.4v74.9l82.6-78.6c1.1-1.3,3.4-2.6,5-2.6h13
	c4.8,0,7.4,5.3,3.2,9.3l-83.6,78.1l87.6,89.7c1.9,1.9,1.3,8.2-4.5,8.2h-13.5c-1.9,0-4.2-1.1-4.8-1.9l-85-88.7v84.2
	c0,3.4-2.9,6.4-6.4,6.4h-7.7c-3.7,0-6.4-2.9-6.4-6.4V197.2z"/>
<path class="st0" d="M469.1,195.8c0-2.6,2.1-5,5-5h10.3c2.6,0,5,2.4,5,5v162.5h76.2c2.9,0,5,2.4,5,5v7.7c0,2.6-2.1,5-5,5H474
	c-2.9,0-5-2.4-5-5V195.8H469.1z"/>
<path class="st0" d="M581.9,369.2l80.5-178.1c0.8-1.6,2.1-2.9,4.5-2.9h2.6c2.4,0,3.7,1.3,4.5,2.9l79.9,178.1
	c1.6,3.4-0.5,6.9-4.5,6.9h-10.6c-2.4,0-4-1.6-4.5-2.9l-19.6-43.7h-93.9l-19.3,43.7c-0.5,1.3-2.1,2.9-4.5,2.9h-10.6
	C582.4,376.1,580.3,372.6,581.9,369.2z M707.6,313.1c-13-28.8-25.7-58-38.6-86.8h-2.1l-38.6,86.8H707.6z"/>
<path class="st0" d="M782.7,195.8c0-2.6,2.1-5,5-5h58c32.3,0,54.3,20.9,54.3,48.7c0,20.4-13.5,35.2-25.9,42.3
	c14,5.8,31.8,18.8,31.8,43.1c0,29.6-23.6,51.1-57.7,51.1h-60.3c-2.9,0-5-2.4-5-5V195.8H782.7z M850.2,358.3
	c19.3,0,33.3-14.6,33.3-33.6c0-18.8-17.2-32.6-37.8-32.6H802v66.2H850.2z M845.7,273.9c20.4,0,31.8-14.6,31.8-33.1
	c0-19.1-11.4-31.8-31.8-31.8h-43.1v64.8h43.1V273.9z"/>
<path class="st1" d="M976.8,192.9c0-2.6,2.4-4.8,5-4.8h6.6l119.4,148.7c0.3,0,0.3,0,0.5,0v-141c0-2.6,2.1-5,5-5h9.3c2.6,0,5,2.4,5,5
	v178.1c0,2.6-2.4,4.8-5,4.8h-4.8L996.4,227.1h-0.3v144c0,2.6-2.1,5-5,5h-9.3c-2.6,0-5-2.4-5-5L976.8,192.9L976.8,192.9z"/>
<path class="st1" d="M1263.2,188.2c52.9,0,95.3,42.6,95.3,95.5s-42.3,95-95.3,95s-95-42.1-95-95S1210.2,188.2,1263.2,188.2z
	 M1263.2,360.2c42.1,0,76.7-34.4,76.7-76.5s-34.7-77-76.7-77s-76.5,34.9-76.5,77S1221.1,360.2,1263.2,360.2z"/>
<path class="st1" d="M1380.7,197.2c-1.1-3.7,1.1-6.4,4.8-6.4h11.1c2.1,0,4.2,1.9,4.8,3.7l36.8,137.1h1.1l44.2-140.5
	c0.5-1.6,2.1-2.9,4.5-2.9h4.8c2.1,0,4,1.3,4.5,2.9l45,140.5h1.1l36-137.1c0.5-1.9,2.6-3.7,4.8-3.7h11.1c3.7,0,5.8,2.6,4.8,6.4
	l-50,177.8c-0.5,2.1-2.6,3.7-4.8,3.7h-4.2c-1.9,0-3.7-1.3-4.5-2.9l-45.8-143.2h-1.3l-45,143.2c-0.8,1.6-2.6,2.9-4.5,2.9h-4.2
	c-2.1,0-4.2-1.6-4.8-3.7L1380.7,197.2z"/>
<path class="st0" d="M355,374.8c-4,0-7.7-2.7-8.7-6.8c-1.2-4.8,1.7-9.7,6.6-10.9c34.2-8.5,58.1-39.2,58.1-74.4
	c0-42.3-34.4-76.7-76.7-76.7s-76.7,34.4-76.7,76.7c0,35.3,23.9,65.9,58.1,74.4c4.8,1.2,7.8,6.1,6.6,10.9c-1.2,4.8-6.1,7.8-10.9,6.6
	c-42.2-10.5-71.7-48.4-71.7-91.9c0-52.2,42.5-94.8,94.8-94.8s94.8,42.5,94.8,94.8c0,43.6-29.5,81.4-71.7,91.9
	C356.5,374.7,355.8,374.8,355,374.8z"/>
</svg>
